<svg width="751" height="32" viewBox="0 0 751 32" fill="none" xmlns="http://www.w3.org/2000/svg">
<path d="M0.258789 20.1052L18.1159 15.3204C29.8144 12.1859 42.1318 12.1859 53.8302 15.3204C65.5287 18.455 77.8461 18.455 89.5445 15.3204C101.243 12.1859 113.56 12.1859 125.259 15.3204C136.957 18.455 149.275 18.455 160.973 15.3204C172.671 12.1859 184.989 12.1859 196.687 15.3204C208.386 18.455 220.703 18.455 232.402 15.3204C244.1 12.1859 256.418 12.1859 268.116 15.3204C279.814 18.455 292.132 18.455 303.83 15.3204C315.529 12.1859 327.846 12.1859 339.545 15.3204C351.243 18.455 363.56 18.455 375.259 15.3204C386.957 12.1859 399.275 12.1859 410.973 15.3204C422.671 18.455 434.989 18.455 446.687 15.3204C458.386 12.1859 470.703 12.1859 482.402 15.3204C494.1 18.455 506.418 18.455 518.116 15.3204C529.814 12.1859 542.132 12.1859 553.83 15.3204C565.529 18.455 577.846 18.455 589.545 15.3204C601.243 12.1859 613.56 12.1859 625.259 15.3204C636.957 18.455 649.275 18.455 660.973 15.3204C672.671 12.1859 684.989 12.1859 696.687 15.3204C708.386 18.455 720.703 18.455 732.402 15.3204L750.259 10.5356M0.258789 10.5355L18.1159 5.75072C29.8143 2.61613 42.1318 2.61613 53.8302 5.75071C65.5286 8.8853 77.8461 8.8853 89.5445 5.75071C101.243 2.61613 113.56 2.61613 125.259 5.75071C136.957 8.8853 149.275 8.8853 160.973 5.75071C172.671 2.61613 184.989 2.61613 196.687 5.75071C208.386 8.88529 220.703 8.8853 232.402 5.75071C244.1 2.61613 256.418 2.61614 268.116 5.75072C279.814 8.8853 292.132 8.8853 303.83 5.75071C315.529 2.61613 327.846 2.61613 339.544 5.75071C351.243 8.8853 363.56 8.8853 375.259 5.75071C386.957 2.61613 399.275 2.61613 410.973 5.75072C422.672 8.8853 434.989 8.8853 446.687 5.75071C458.386 2.61613 470.703 2.61613 482.402 5.75071C494.1 8.8853 506.418 8.8853 518.116 5.75072C529.814 2.61613 542.132 2.61613 553.83 5.75072C565.529 8.8853 577.846 8.8853 589.545 5.75071C601.243 2.61613 613.56 2.61613 625.259 5.75071C636.957 8.8853 649.275 8.8853 660.973 5.75072C672.671 2.61614 684.989 2.61613 696.687 5.75071C708.386 8.8853 720.703 8.8853 732.402 5.75071L750.259 0.965908" stroke="black" stroke-width="2"/>
<path d="M0.258789 30.1051L18.1159 25.3203C29.8143 22.1857 42.1318 22.1857 53.8302 25.3203C65.5286 28.4549 77.8461 28.4549 89.5445 25.3203C101.243 22.1857 113.56 22.1857 125.259 25.3203C136.957 28.4549 149.275 28.4549 160.973 25.3203C172.671 22.1857 184.989 22.1857 196.687 25.3203C208.386 28.4548 220.703 28.4549 232.402 25.3203C244.1 22.1857 256.418 22.1857 268.116 25.3203C279.814 28.4549 292.132 28.4549 303.83 25.3203C315.529 22.1857 327.846 22.1857 339.544 25.3203C351.243 28.4548 363.56 28.4549 375.259 25.3203C386.957 22.1857 399.275 22.1857 410.973 25.3203C422.672 28.4549 434.989 28.4549 446.687 25.3203C458.386 22.1857 470.703 22.1857 482.402 25.3203C494.1 28.4548 506.418 28.4549 518.116 25.3203C529.814 22.1857 542.132 22.1857 553.83 25.3203C565.529 28.4549 577.846 28.4548 589.545 25.3203C601.243 22.1857 613.56 22.1857 625.259 25.3203C636.957 28.4549 649.275 28.4549 660.973 25.3203C672.671 22.1857 684.989 22.1857 696.687 25.3203C708.386 28.4549 720.703 28.4549 732.402 25.3203L750.259 20.5355" stroke="black" stroke-width="2"/>
</svg>
