<svg width="75" height="75" viewBox="0 0 75 75" fill="none" xmlns="http://www.w3.org/2000/svg">
<path d="M63.1774 29.369L63.1902 41.6107L59.4148 42.3763L58.5333 30.3108L63.1774 29.369ZM61.689 47.7589C61.0375 47.8911 60.46 47.7734 59.9565 47.4059C59.4574 47.0317 59.1752 46.5121 59.1099 45.8471C59.0479 45.1987 59.2246 44.5976 59.6399 44.0438C60.0607 43.4889 60.5969 43.1453 61.2484 43.0132C61.8665 42.8879 62.4273 43.0089 62.9308 43.3764C63.4399 43.7428 63.7255 44.2501 63.7874 44.8985C63.8309 45.3419 63.7579 45.7683 63.5685 46.1777C63.3835 46.5805 63.1231 46.9261 62.7874 47.2145C62.4561 47.4961 62.09 47.6776 61.689 47.7589Z" fill="black"/>
<path d="M41.519 30.9977L41.3949 27.127L56.2627 24.1119L56.3868 27.9826L51.2415 29.0261L51.7466 42.8376L47.1693 43.7658L46.6643 29.9543L41.519 30.9977Z" fill="black"/>
<circle cx="37.5" cy="37.5" r="36.5" stroke="black" stroke-width="2"/>
<path d="M13.6714 45.2352L13.5841 42.5745L21.2852 29.7772L13.1998 31.4169L13.0757 27.5462L27.0414 24.714L27.1288 27.3747L19.4277 40.172L27.5131 38.5323L27.6372 42.403L13.6714 45.2352Z" fill="black"/>
<path d="M44.9645 39.6547C45.0298 41.5778 44.7279 43.2623 44.0588 44.7082C43.3896 46.1542 42.4601 47.3311 41.2702 48.2392C40.0804 49.1472 38.7337 49.7536 37.2302 50.0585C35.6265 50.3837 34.1638 50.318 32.8421 49.8614C31.5204 49.4047 30.4535 48.5601 29.6412 47.3277C28.8289 46.0952 28.3877 44.4773 28.3177 42.474C28.2412 40.5532 28.5365 38.8642 29.2034 37.4071C29.8702 35.9501 30.8031 34.7608 32.0018 33.8394C33.2005 32.918 34.5572 32.3037 36.0719 31.9966C37.6644 31.6736 39.1193 31.7438 40.4366 32.2072C41.7594 32.6694 42.8253 33.5229 43.6343 34.7676C44.4488 36.0112 44.8922 37.6402 44.9645 39.6547ZM40.1786 40.0687C40.1357 39.057 39.9797 38.2306 39.7106 37.5895C39.4403 36.9428 39.0563 36.4931 38.5587 36.2404C38.0599 35.9821 37.4485 35.9264 36.7246 36.0732C35.9005 36.2403 35.2117 36.5887 34.6582 37.1184C34.1047 37.648 33.6953 38.3311 33.4302 39.1675C33.165 40.004 33.0561 40.9681 33.1036 42.06C33.1265 43.0873 33.2769 43.9148 33.5549 44.5426C33.8385 45.1692 34.2336 45.6021 34.7401 45.8414C35.2522 46.0796 35.8647 46.1265 36.5774 45.9819C37.3904 45.8171 38.0692 45.4765 38.6138 44.9602C39.164 44.4428 39.5701 43.772 39.8319 42.9479C40.0994 42.1226 40.2149 41.1628 40.1786 40.0687Z" fill="black"/>
</svg>
