<svg width="351" height="32" viewBox="0 0 351 32" fill="none" xmlns="http://www.w3.org/2000/svg">
<path d="M0.258789 18.2181L11.9255 15.092C19.5684 13.0441 27.6158 13.0441 35.2588 15.092C42.9018 17.1399 50.9492 17.1399 58.5921 15.092C66.2351 13.0441 74.2825 13.0441 81.9255 15.092C89.5684 17.1399 97.6158 17.1399 105.259 15.092C112.902 13.0441 120.949 13.0441 128.592 15.092C136.235 17.1399 144.282 17.1399 151.925 15.092C159.568 13.0441 167.616 13.0441 175.259 15.092C182.902 17.1399 190.949 17.1399 198.592 15.092C206.235 13.0441 214.282 13.0441 221.925 15.092C229.568 17.1399 237.616 17.1399 245.259 15.092C252.902 13.0441 260.949 13.0441 268.592 15.092C276.235 17.1399 284.282 17.1399 291.925 15.092C299.568 13.0441 307.616 13.0441 315.259 15.092C322.902 17.1399 330.949 17.1399 338.592 15.092L350.259 11.9659" stroke="black" stroke-width="2"/>
<path d="M0.258789 7.21806L11.9255 4.09199C19.5684 2.04406 27.6158 2.04406 35.2588 4.09199C42.9018 6.13991 50.9492 6.13991 58.5921 4.09199C66.2351 2.04406 74.2825 2.04406 81.9255 4.09199C89.5684 6.13991 97.6158 6.13991 105.259 4.09199C112.902 2.04406 120.949 2.04406 128.592 4.09199C136.235 6.13991 144.282 6.13991 151.925 4.09199C159.568 2.04406 167.616 2.04406 175.259 4.09199C182.902 6.13991 190.949 6.13991 198.592 4.09199C206.235 2.04406 214.282 2.04406 221.925 4.09199C229.568 6.13991 237.616 6.13991 245.259 4.09199C252.902 2.04406 260.949 2.04406 268.592 4.09198C276.235 6.13991 284.282 6.13991 291.925 4.09198C299.568 2.04406 307.616 2.04406 315.259 4.09199C322.902 6.13991 330.949 6.13991 338.592 4.09199L350.259 0.965912" stroke="black" stroke-width="2"/>
<path d="M0.258789 30.2181L11.9255 27.092C19.5684 25.0441 27.6158 25.0441 35.2588 27.092C42.9018 29.1399 50.9492 29.1399 58.5921 27.092C66.2351 25.0441 74.2825 25.0441 81.9255 27.092C89.5684 29.1399 97.6158 29.1399 105.259 27.092C112.902 25.0441 120.949 25.0441 128.592 27.092C136.235 29.1399 144.282 29.1399 151.925 27.092C159.568 25.0441 167.616 25.0441 175.259 27.092C182.902 29.1399 190.949 29.1399 198.592 27.092C206.235 25.0441 214.282 25.0441 221.925 27.092C229.568 29.1399 237.616 29.1399 245.259 27.092C252.902 25.0441 260.949 25.0441 268.592 27.092C276.235 29.1399 284.282 29.1399 291.925 27.092C299.568 25.0441 307.616 25.0441 315.259 27.092C322.902 29.1399 330.949 29.1399 338.592 27.092L350.259 23.9659" stroke="black" stroke-width="2"/>
</svg>
